<svg xmlns="http://www.w3.org/2000/svg"
     viewBox="0 0 24 24"
     width="17"
     height="17"
     fill="white">
  <path d="M12 2.2c3.2 0 3.6 0 4.8.1 1.2.1 1.8.2 2.2.4.5.2.9.5 1.3.9.4.4.7.8.9 1.3.2.4.3 1 .4 2.2.1 1.2.1 1.6.1 4.8s0 3.6-.1 4.8c-.1 1.2-.2 1.8-.4 2.2-.2.5-.5.9-.9 1.3-.4.4-.8.7-1.3.9-.4.2-1 .3-2.2.4-1.2.1-1.6.1-4.8.1s-3.6 0-4.8-.1c-1.2-.1-1.8-.2-2.2-.4-.5-.2-.9-.5-1.3-.9-.4-.4-.7-.8-.9-1.3-.2-.4-.3-1-.4-2.2C2.2 15.6 2.2 15.2 2.2 12s0-3.6.1-4.8c.1-1.2.2-1.8.4-2.2.2-.5.5-.9.9-1.3.4-.4.8-.7 1.3-.9.4-.2 1-.3 2.2-.4C8.4 2.2 8.8 2.2 12 2.2zm0-2.2C8.7 0 8.3 0 7.1.1 5.9.2 5.1.4 4.4.7c-.7.3-1.3.7-1.9 1.3S1.2 3.4.9 4.1C.6 4.8.4 5.6.3 6.8.2 8 .2 8.4.2 12s0 4 .1 5.2c.1 1.2.3 2 .6 2.7.3.7.7 1.3 1.3 1.9s1.2 1 1.9 1.3c.7.3 1.5.5 2.7.6 1.2.1 1.6.1 5.2.1s4 0 5.2-.1c1.2-.1 2-.3 2.7-.6.7-.3 1.3-.7 1.9-1.3s1-1.2 1.3-1.9c.3-.7.5-1.5.6-2.7.1-1.2.1-1.6.1-5.2s0-4-.1-5.2c-.1-1.2-.3-2-.6-2.7-.3-.7-.7-1.3-1.3-1.9S19.5.9 18.8.6c-.7-.3-1.5-.5-2.7-.6C15.7 0 15.3 0 12 0z"/>
  <path d="M12 5.8a6.2 6.2 0 1 0 0 12.4 6.2 6.2 0 0 0 0-12.4zm0 10.2a4 4 0 1 1 0-8 4 4 0 0 1 0 8z"/>
  <circle cx="18.4" cy="5.6" r="1.44"/>
</svg>