<svg xmlns="http://www.w3.org/2000/svg" 
     viewBox="0 0 24 24" 
     width="17" 
     height="17" 
     fill="white">
  <path d="M23 3a10.9 10.9 0 0 1-3.14 1.53A4.48 4.48 0 0 0 22.4.36a9.07 9.07 0 0 1-2.88 1.1A4.52 4.52 0 0 0 16.5 0c-2.48 0-4.5 2-4.5 4.5 0 .35.04.7.11 1.03A12.94 12.94 0 0 1 1.64 1.15a4.49 4.49 0 0 0-.61 2.27c0 1.56.8 2.93 2 3.73a4.5 4.5 0 0 1-2.04-.56v.06c0 2.2 1.56 4.03 3.63 4.45a4.52 4.52 0 0 1-2.03.08c.57 1.78 2.24 3.08 4.21 3.12A9.06 9.06 0 0 1 0 19.54 12.77 12.77 0 0 0 6.92 21c8.3 0 12.85-6.87 12.85-12.84 0-.2 0-.41-.01-.61A9.22 9.22 0 0 0 23 3z"/>
</svg>