<svg xmlns="http://www.w3.org/2000/svg" width="17" height="17" viewBox="0 0 24 24" fill="" stroke="">
  <path fill="white" d="M23.498 6.186c-.276-1.04-1.09-1.857-2.128-2.13C19.629 3.5 12 3.5 12 3.5s-7.629 0-9.37.556c-1.038.273-1.852 1.09-2.128 2.13C0 7.93 0 12 0 12s0 4.07.502 5.814c.276 1.04 1.09 1.857 2.128 2.13C4.371 20.5 12 20.5 12 20.5s7.629 0 9.37-.556c1.038-.273 1.852-1.09 2.128-2.13C24 16.07 24 12 24 12s0-4.07-.502-5.814z"/>
  <path fill="#2a3e89" d="M9.545 15.568V8.432l6.182 3.568-6.182 3.568z"/>
</svg>